<?xml version="1.0" encoding="UTF-8"?><svg id="Layer_2" xmlns="http://www.w3.org/2000/svg" viewBox="0 0 384 384"><defs><style>.cls-1{fill:#fff;}</style></defs><g id="Layer_1-2"><g><path class="cls-1" d="M384,384H0V0H384V384Zm-120.03-203.44h-.16c0-4,.15-8.01-.05-12-.14-2.73-.66-5.45-1.17-8.15-6.11-32.36-33.94-56.89-66.27-58.44-34.27-1.64-64.16,19.62-73.62,52.1-3.43,11.77-2.54,23.77-2.85,35.73-.06,2.19-.77,4.64-1.94,6.49-7.72,12.25-3.92,28.08,8.5,35.14,1.22,.69,2.35,2.16,2.78,3.51,9.06,28.58,33.77,47.09,62.98,47.02,28.73-.07,53.4-18.75,62.24-46.96,.45-1.45,1.75-2.98,3.08-3.76,11.49-6.74,16.12-20.89,9.62-32.41-2.64-4.67-3.37-9.15-3.15-14.15,.06-1.37,0-2.75,0-4.13ZM65.55,372c15.62,0,31.24,.03,46.86-.01,6.55-.02,9.08-4.02,6.25-9.88-2.83-5.84-5.96-11.55-8.56-17.48-1.2-2.74-2.02-5.89-2.07-8.87-.22-13.49-.07-26.99-.11-40.49-.01-5.14-2.17-7.28-7.32-7.28-23.12-.02-46.24-.02-69.35,0-5.16,0-7.29,2.14-7.32,7.28-.04,7.37-.58,14.8,.11,22.11,1.48,15.84-1.56,30.41-10.36,43.71-.14,.21-.21,.45-.32,.68-3.04,6.29-.58,10.22,6.45,10.23,15.25,.02,30.49,0,45.74,0Zm252.28,0c15.62,0,31.24,.03,46.86-.02,6.27-.02,8.82-4.11,6.09-9.74-2.99-6.18-6.23-12.24-9.11-18.47-.95-2.06-1.58-4.48-1.61-6.74-.14-13.87-.05-27.74-.08-41.62-.01-5.21-2.13-7.43-7.17-7.43-23.24-.03-46.49-.03-69.73,0-4.9,0-7.06,2.21-7.09,7.12-.05,7.25-.56,14.55,.1,21.74,1.46,16.06-1.39,30.93-10.46,44.43-.07,.1-.09,.23-.15,.34-3.15,6.48-.68,10.37,6.62,10.38,15.25,.02,30.49,0,45.74,0ZM95.94,71.55c0-17.13,0-34.26,0-51.39,0-6.41-1.86-8.29-8.21-8.29-22.5,0-45.01,0-67.51,0-6.42,0-8.29,1.85-8.29,8.21,0,34.51,0,69.02,0,103.53,0,6.41,1.86,8.29,8.21,8.3,22.5,0,45.01,0,67.51,0,6.4,0,8.29-1.87,8.29-8.22,0-17.38,0-34.76,0-52.14Zm192.04,0c0,17.51,0,35.01,0,52.52,0,5.86,2,7.84,7.91,7.84,22.75,.01,45.51,.01,68.26,0,5.85,0,7.84-2.02,7.84-7.92,.01-34.76,.01-69.52,0-104.28,0-5.85-2.01-7.83-7.92-7.83-22.75-.01-45.51-.01-68.26,0-5.86,0-7.83,2-7.83,7.91-.01,17.25,0,34.51,0,51.77ZM71.93,215.94c7.94,0,15.3,.03,22.66,0,4.62-.02,7.41-2.42,7.31-6.16-.1-3.61-2.78-5.81-7.25-5.83-9.12-.03-18.24-.04-27.36,0-5.18,.02-7.34,2.13-7.35,7.24-.03,19.12-.02,38.23,0,57.35,0,4.68,2.33,7.45,6.07,7.39,3.72-.05,5.91-2.8,5.92-7.55,.02-15.99,0-31.99,0-47.98,0-1.35,0-2.69,0-4.46Zm240.05,0c0,1.7,0,3.03,0,4.37,0,16.24-.02,32.49,.02,48.73,.01,4.16,2.33,6.79,5.82,6.89,3.38,.1,6.11-2.43,6.12-6.19,.07-19.87,.07-39.73,0-59.6-.01-3.63-2.26-6.08-5.75-6.13-10.12-.14-20.24-.14-30.36,0-3.52,.05-5.91,2.79-5.83,6.07,.07,3.12,2.39,5.51,5.73,5.82,1.24,.11,2.5,.05,3.75,.05,6.71,0,13.42,0,20.5,0ZM173.96,77.89c0,4.07-.06,7.68,.02,11.28,.08,4.1,2.49,6.71,6.01,6.7,3.52-.02,5.91-2.63,5.96-6.75,.07-5.5,.08-11,0-16.49-.07-4.43-2.31-6.64-6.74-6.72-4.25-.08-8.49-.02-12.74-.02-17.24,0-34.48-.02-51.72,.02-4.13,.01-6.73,2.4-6.76,5.93-.03,3.53,2.57,5.92,6.67,6.04,2,.06,4,.01,6,.01,17.6,0,35.2,0,53.33,0Zm36,0c1.66,0,2.89,0,4.12,0,18.36,0,36.73,.02,55.09-.02,4.12,0,6.74-2.41,6.78-5.93,.04-3.53-2.57-6.03-6.66-6.03-21.49-.04-42.97-.04-64.46,0-4.49,0-6.77,2.24-6.84,6.61-.09,5.62-.09,11.25,0,16.87,.06,3.87,2.45,6.4,5.83,6.49,3.51,.09,6.03-2.55,6.12-6.58,.08-3.61,.02-7.23,.02-11.39Z"/><path d="M263.97,180.56c0,1.38,.05,2.75,0,4.13-.22,5,.51,9.48,3.15,14.15,6.5,11.52,1.87,25.67-9.62,32.41-1.33,.78-2.62,2.31-3.08,3.76-8.84,28.22-33.51,46.89-62.24,46.96-29.2,.07-53.92-18.43-62.98-47.02-.43-1.35-1.56-2.82-2.78-3.51-12.42-7.06-16.23-22.88-8.5-35.14,1.17-1.85,1.88-4.3,1.94-6.49,.31-11.97-.57-23.96,2.85-35.73,9.46-32.49,39.34-53.75,73.62-52.1,32.33,1.55,60.16,26.08,66.27,58.44,.51,2.7,1.03,5.42,1.17,8.15,.2,3.99,.05,8,.05,12h.16Zm-131.74,6.68c2.57-1.57,4.84-2.47,6.47-4.04,4.14-3.98,7.82-8.45,12.04-12.32,1.67-1.53,4.29-2.81,6.5-2.83,23.11-.2,46.23-.2,69.34,0,2.21,.02,4.87,1.24,6.53,2.77,4.32,3.96,8.08,8.52,12.32,12.58,1.57,1.51,3.86,2.27,6.2,3.6,4.95-50.16-30.66-73.04-59.08-73.11-37.76-.09-63.39,30.27-60.33,73.36Zm9.57,46.12c6.93,21.58,28.65,37,51.01,36.57,22.03-.42,43.44-16.24,49.19-36.47-.94-.25-1.87-.56-2.83-.73-13.01-2.36-26.02-4.72-39.03-7.03-3.06-.54-6.28-1.69-9.2-1.21-16.35,2.71-32.64,5.84-49.15,8.86Zm50.14-35.42c-18.23,0-36.46-.06-54.7,.03-7.29,.04-12.04,6.01-11.26,13.75,.72,7.15,6.26,11.29,13.39,10.01,16.69-3,33.38-6.02,50.09-8.96,1.67-.29,3.49-.33,5.16-.03,16.58,2.93,33.14,5.95,49.71,8.95,5.29,.96,9.26-.65,11.81-5.09,2.4-4.18,2.69-8.59,.31-12.86-2.26-4.06-5.92-5.82-10.57-5.81-17.98,.04-35.96,.02-53.95,.02Zm38.74-12.2c-2.82-4.47-6.26-6.05-11.38-5.95-18.61,.36-37.23,.38-55.84-.01-4.99-.1-7.32,2.42-10.19,5.96h77.41Z"/><path d="M65.55,372c-15.25,0-30.49,.02-45.74,0-7.03-.01-9.49-3.95-6.45-10.23,.11-.22,.18-.47,.32-.68,8.8-13.31,11.84-27.87,10.36-43.71-.68-7.31-.15-14.74-.11-22.11,.03-5.14,2.16-7.27,7.32-7.28,23.12-.02,46.24-.02,69.35,0,5.16,0,7.31,2.15,7.32,7.28,.04,13.5-.11,27,.11,40.49,.05,2.98,.86,6.12,2.07,8.87,2.6,5.94,5.73,11.64,8.56,17.48,2.83,5.86,.3,9.87-6.25,9.88-15.62,.04-31.24,.01-46.86,.01Zm30.07-36.09v-35.68H36.21v35.68h59.41Zm8.5,23.94c-1.85-3.71-3.34-6.99-5.13-10.1-.49-.85-1.86-1.68-2.83-1.69-20.11-.1-40.22-.09-60.33-.02-.94,0-2.33,.53-2.74,1.25-1.88,3.33-3.48,6.81-5.34,10.56H104.12Z"/><path d="M317.83,372c-15.25,0-30.49,.01-45.74,0-7.3,0-9.76-3.9-6.62-10.38,.05-.11,.08-.24,.15-.34,9.07-13.5,11.92-28.36,10.46-44.43-.65-7.19-.15-14.49-.1-21.74,.03-4.91,2.2-7.12,7.09-7.12,23.24-.03,46.49-.03,69.73,0,5.05,0,7.16,2.23,7.17,7.43,.03,13.87-.06,27.75,.08,41.62,.02,2.26,.65,4.68,1.61,6.74,2.88,6.23,6.12,12.29,9.11,18.47,2.72,5.63,.17,9.72-6.09,9.74-15.62,.05-31.24,.02-46.86,.02Zm29.99-71.76h-59.54v35.56h59.54v-35.56Zm-67.98,59.56h76.31c-1.83-3.67-3.37-7.06-5.22-10.26-.47-.81-1.94-1.47-2.96-1.48-19.99-.09-39.97-.09-59.96,0-1.02,0-2.5,.66-2.96,1.47-1.85,3.21-3.38,6.6-5.21,10.27Z"/><path d="M95.94,71.55c0,17.38,0,34.76,0,52.14,0,6.35-1.89,8.21-8.29,8.22-22.5,0-45.01,0-67.51,0-6.35,0-8.21-1.88-8.21-8.3,0-34.51,0-69.02,0-103.53,0-6.36,1.87-8.21,8.29-8.21,22.5,0,45.01,0,67.51,0,6.35,0,8.21,1.88,8.21,8.29,0,17.13,0,34.26,0,51.39Zm-12.27,48.19V24.18H24.12V119.75h59.54Z"/><path d="M287.98,71.55c0-17.26,0-34.51,0-51.77,0-5.91,1.97-7.91,7.83-7.91,22.75-.01,45.51-.01,68.26,0,5.9,0,7.91,1.98,7.92,7.83,.01,34.76,.01,69.52,0,104.28,0,5.9-1.99,7.91-7.84,7.92-22.75,.01-45.51,.01-68.26,0-5.91,0-7.9-1.98-7.91-7.84-.02-17.51,0-35.01,0-52.52Zm12.17,48.09h59.55V24.07h-59.55V119.64Z"/><path d="M71.93,215.94c0,1.76,0,3.11,0,4.46,0,15.99,.01,31.99,0,47.98,0,4.75-2.2,7.5-5.92,7.55-3.74,.05-6.07-2.71-6.07-7.39-.02-19.12-.03-38.23,0-57.35,0-5.11,2.17-7.22,7.35-7.24,9.12-.04,18.24-.03,27.36,0,4.47,.02,7.15,2.22,7.25,5.83,.11,3.74-2.69,6.13-7.31,6.16-7.36,.03-14.73,0-22.66,0Z"/><path d="M311.98,215.94c-7.08,0-13.79,0-20.5,0-1.25,0-2.51,.07-3.75-.05-3.34-.31-5.66-2.7-5.73-5.82-.08-3.27,2.31-6.02,5.83-6.07,10.12-.13,20.24-.13,30.36,0,3.49,.05,5.74,2.5,5.75,6.13,.07,19.87,.07,39.73,0,59.6-.01,3.75-2.74,6.28-6.12,6.19-3.49-.1-5.81-2.73-5.82-6.89-.04-16.24-.02-32.49-.02-48.73,0-1.34,0-2.68,0-4.37Z"/><path d="M173.96,77.89c-18.13,0-35.73,0-53.33,0-2,0-4,.05-6-.01-4.09-.12-6.7-2.51-6.67-6.04,.03-3.53,2.63-5.92,6.76-5.93,17.24-.04,34.48-.02,51.72-.02,4.25,0,8.5-.06,12.74,.02,4.43,.08,6.67,2.29,6.74,6.72,.08,5.5,.07,11,0,16.49-.05,4.12-2.44,6.73-5.96,6.75-3.52,.02-5.92-2.6-6.01-6.7-.07-3.6-.02-7.21-.02-11.28Z"/><path d="M209.96,77.89c0,4.17,.07,7.78-.02,11.39-.09,4.04-2.61,6.67-6.12,6.58-3.38-.08-5.77-2.62-5.83-6.49-.09-5.62-.09-11.25,0-16.87,.07-4.37,2.35-6.6,6.84-6.61,21.49-.04,42.97-.04,64.46,0,4.09,0,6.7,2.51,6.66,6.03-.04,3.51-2.66,5.92-6.78,5.93-18.36,.04-36.73,.02-55.09,.02-1.23,0-2.45,0-4.12,0Z"/><path class="cls-1" d="M132.23,187.24c-3.06-43.09,22.57-73.46,60.33-73.36,28.42,.07,64.02,22.95,59.08,73.11-2.35-1.32-4.63-2.09-6.2-3.6-4.24-4.06-8-8.62-12.32-12.58-1.66-1.52-4.32-2.75-6.53-2.77-23.11-.2-46.23-.2-69.34,0-2.2,.02-4.83,1.3-6.5,2.83-4.23,3.88-7.91,8.34-12.04,12.32-1.63,1.57-3.9,2.47-6.47,4.04Z"/><path class="cls-1" d="M141.8,233.36c16.51-3.02,32.79-6.15,49.15-8.86,2.92-.48,6.14,.67,9.2,1.21,13.02,2.31,26.03,4.67,39.03,7.03,.96,.17,1.89,.48,2.83,.73-5.75,20.22-27.16,36.04-49.19,36.47-22.36,.43-44.08-14.99-51.01-36.57Z"/><path class="cls-1" d="M191.94,197.94c17.98,0,35.97,.02,53.95-.02,4.65-.01,8.31,1.75,10.57,5.81,2.38,4.27,2.09,8.68-.31,12.86-2.55,4.44-6.52,6.05-11.81,5.09-16.57-3-33.13-6.02-49.71-8.95-1.67-.29-3.48-.26-5.16,.03-16.71,2.94-33.4,5.96-50.09,8.96-7.14,1.28-12.67-2.86-13.39-10.01-.78-7.74,3.96-13.71,11.26-13.75,18.23-.1,36.46-.03,54.7-.03Z"/><path class="cls-1" d="M230.68,185.74h-77.41c2.87-3.54,5.2-6.07,10.19-5.96,18.61,.39,37.23,.37,55.84,.01,5.12-.1,8.56,1.48,11.38,5.95Z"/><path class="cls-1" d="M95.62,335.91H36.21v-35.68h59.41v35.68Z"/><path class="cls-1" d="M104.12,359.85H27.75c1.86-3.75,3.46-7.23,5.34-10.56,.41-.72,1.8-1.24,2.74-1.25,20.11-.07,40.22-.08,60.33,.02,.97,0,2.34,.84,2.83,1.69,1.79,3.11,3.28,6.39,5.13,10.1Z"/><path class="cls-1" d="M347.82,300.23v35.56h-59.54v-35.56h59.54Z"/><path class="cls-1" d="M279.84,359.79c1.82-3.67,3.36-7.06,5.21-10.27,.47-.81,1.95-1.47,2.96-1.47,19.99-.08,39.97-.09,59.96,0,1.02,0,2.49,.66,2.96,1.48,1.85,3.21,3.39,6.59,5.22,10.26h-76.31Z"/><path class="cls-1" d="M83.66,119.75H24.12V24.18h59.54V119.75ZM53.84,41.88c3.75,0,7.5,.05,11.25-.01,4.16-.07,6.76-2.38,6.81-5.91,.05-3.53-2.56-6.02-6.64-6.06-7.5-.07-15-.06-22.5,0-4.15,.03-6.75,2.37-6.8,5.9-.05,3.65,2.63,6.02,7.01,6.08,3.62,.05,7.25,.01,10.87,0Zm-.27,72.02c4,0,8,.09,12-.02,3.82-.11,6.34-2.6,6.33-5.99-.01-3.4-2.54-5.9-6.37-5.94-7.75-.09-15.5-.1-23.25,0-3.83,.05-6.34,2.57-6.32,5.98,.01,3.4,2.52,5.85,6.37,5.95,3.75,.11,7.5,.02,11.25,.02Z"/><path class="cls-1" d="M300.15,119.64V24.07h59.55V119.64h-59.55Zm29.84-77.77c3.87,0,7.75,.08,11.62-.02,3.83-.11,6.35-2.58,6.35-5.97,0-3.41-2.51-5.92-6.35-5.96-7.75-.1-15.5-.1-23.25,0-3.84,.05-6.35,2.55-6.35,5.96,0,3.4,2.51,5.87,6.35,5.97,3.87,.11,7.75,.02,11.62,.02Zm0,72.02c3.87,0,7.75,.08,11.62-.02,3.83-.11,6.35-2.57,6.36-5.97,0-3.41-2.51-5.92-6.34-5.97-7.75-.1-15.5-.1-23.25,0-3.84,.05-6.35,2.54-6.35,5.95,0,3.4,2.51,5.87,6.34,5.98,3.87,.11,7.75,.02,11.62,.02Z"/><path d="M53.84,41.88c-3.62,0-7.25,.04-10.87-.01-4.38-.06-7.07-2.43-7.01-6.08,.05-3.52,2.65-5.86,6.8-5.9,7.5-.06,15-.07,22.5,0,4.08,.04,6.69,2.53,6.64,6.06-.05,3.53-2.65,5.83-6.81,5.91-3.75,.07-7.5,.01-11.25,.01Z"/><path d="M53.57,113.9c-3.75,0-7.5,.08-11.25-.02-3.84-.11-6.35-2.55-6.37-5.95-.01-3.41,2.49-5.93,6.32-5.98,7.75-.1,15.5-.09,23.25,0,3.84,.05,6.36,2.54,6.37,5.94,.01,3.4-2.51,5.89-6.33,5.99-4,.11-8,.02-12,.03Z"/><path d="M329.98,41.87c-3.87,0-7.75,.08-11.62-.02-3.83-.11-6.35-2.57-6.35-5.97,0-3.41,2.51-5.91,6.35-5.96,7.75-.1,15.5-.1,23.25,0,3.84,.05,6.35,2.55,6.35,5.96,0,3.4-2.52,5.87-6.35,5.97-3.87,.11-7.75,.02-11.62,.02Z"/><path d="M329.98,113.9c-3.87,0-7.75,.08-11.62-.02-3.83-.11-6.34-2.58-6.34-5.98,0-3.41,2.51-5.91,6.35-5.95,7.75-.09,15.5-.1,23.25,0,3.83,.05,6.35,2.56,6.34,5.97,0,3.4-2.53,5.86-6.36,5.97-3.87,.11-7.75,.02-11.62,.02Z"/></g></g></svg>