<?xml version="1.0" encoding="UTF-8"?><svg id="Layer_2" xmlns="http://www.w3.org/2000/svg" viewBox="0 0 384 384"><defs><style>.cls-1{fill:#fff;}</style></defs><g id="Layer_1-2"><g><path class="cls-1" d="M384,384H0V0H384V384Zm-197.92-96.03c.2,1.33,.43,2.41,.53,3.51,4.93,54.78,56.67,94.85,111.06,85.05,39.53-7.12,65.97-30.7,76.62-69.33,10.55-38.26-.65-71.23-29.91-97.97-1.76-1.61-2.43-3.09-2.43-5.41,.07-36.89,.05-73.77,.05-110.66v-3.58c26.06-5.07,37.87-26.87,35.77-45.87-2.38-21.56-19.92-37.41-41.08-37.86-17.79-.38-40.98,12.26-42.99,42.01H6.13v240.1H186.08Z"/><path d="M186.08,287.97H6.13V47.87H293.69c2.01-29.75,25.2-42.39,42.99-42.01,21.16,.45,38.7,16.3,41.08,37.86,2.1,19-9.72,40.8-35.77,45.87v3.58c0,36.89,.02,73.77-.05,110.66,0,2.32,.67,3.81,2.43,5.41,29.26,26.74,40.46,59.7,29.91,97.97-10.65,38.63-37.09,62.21-76.62,69.33-54.38,9.8-106.13-30.27-111.06-85.05-.1-1.1-.32-2.18-.53-3.51Zm-11.85-23.93v-71.9h35.89v25.65c35.66-34.51,75.38-41.02,119.7-19.49V90.32c-6.66-2.78-12.92-5.4-19.6-8.19-10.84,10.87-22.1,22.23-33.48,33.47-1.82,1.8-2.26,3.26-1.52,5.81,2.13,7.36-.24,13.58-5.96,18.46-5.5,4.69-13.3,5.43-19.66,1.92-6.61-3.66-11.13-9.76-9.2-16.87,1.92-7.08-1.79-9.97-5.62-13.71-1.07-1.05-1.98-2.37-3.23-3.1-1.19-.69-2.73-1-4.13-1.04-3.44-.1-6.99,.57-10.29-.08-2.49-.49-3.83,.01-5.45,1.66-7.45,7.58-14.92,15.14-22.55,22.53-3.07,2.97-6.08,5.64-3.34,10.36,.23,.39,.12,.98,.14,1.48,.39,7.71-4.24,14.82-11.48,17.64-7.41,2.88-15.56,.67-20.58-5.58-4.84-6.04-5.22-14.51-.95-21.01,4.28-6.51,12.09-9.5,19.64-7.45,1.79,.49,3.22,1.16,5-.67,8.7-8.97,17.66-17.7,26.39-26.65,.79-.81,.85-2.5,.92-3.81,.21-4.03-.65-8.36,.54-12.04,2.95-9.13,13.15-13.65,22.24-10.64,9.06,3,14.25,12.61,11.5,21.88-.73,2.46-.23,3.86,1.52,5.46,2.77,2.52,5.24,5.37,8.05,7.86,.8,.71,2.31,.85,3.49,.86,3.56,.04,7.19-.57,10.66-.04,2.24,.34,3.56,.24,5.17-1.4,10.71-10.86,21.53-21.61,32.31-32.4,.67-.67,1.26-1.44,1.69-1.94-1.77-3.39-3.8-6.35-4.88-9.62-.98-2.96-2.4-3.65-5.35-3.65-89.88,.08-179.77,.07-269.65,.07h-3.96v215.9H186.2c.45-3.94,.88-7.71,1.33-11.76h-13.3Zm58.88,53.13c-6.73,3.89-13.5,7.8-20.73,11.98,17.35,23.7,40.14,36.62,69.22,36.75,29.4,.13,52.44-12.8,69.9-36.62-1.13-.74-1.82-1.24-2.55-1.66-6.03-3.49-12.06-6.98-18.06-10.44-24.57,32.85-72.65,33.22-97.77,0Zm42.7-119c-29.08,3.14-51.59,16.53-66.27,41.6-14.87,25.38-15.25,51.8-3.12,78.93,7.13-4.12,13.9-8.03,20.8-12.01-7.73-18.78-7.28-37.05,2.81-54.54,10.15-17.6,25.86-27.22,45.78-30.01v-23.96Zm12.33,24c20.24,2.84,35.74,12.55,45.82,30.03,10.08,17.49,10.5,35.77,2.79,54.47,6.94,4,13.7,7.91,20.82,12.01,12.3-27.75,11.67-54.6-3.96-80.26-14.78-24.27-36.98-37.28-65.47-40.22v23.97Zm-6.2,11.81c-26.37,.02-47.95,21.6-47.96,47.96-.02,26.38,21.52,48.02,47.86,48.07,26.55,.06,48.2-21.59,48.15-48.16-.04-26.35-21.67-47.9-48.05-47.88Zm53.93-156.08c16.55,.06,30.11-13.44,30.12-29.98,.01-16.4-13.33-29.9-29.68-30.03-16.58-.13-30.21,13.27-30.3,29.78-.09,16.57,13.34,30.17,29.87,30.22Zm-149.69,126.23v47.6c3.47,.98,5.2-.2,6.05-3.53,.63-2.5,1.95-4.84,3.01-7.23,.86-1.93,2.51-3.81,2.56-5.74,.26-10.31,.12-20.63,.12-31.1h-11.74Zm41.76-114.37c-.09-3.25-2.88-5.91-6.12-5.82-3.25,.09-5.9,2.87-5.82,6.12,.09,3.25,2.88,5.91,6.12,5.82,3.24-.09,5.91-2.89,5.82-6.12Zm29.91,42.14c3.24,.07,6.03-2.6,6.1-5.85,.07-3.24-2.59-6.03-5.84-6.1-3.25-.07-6.03,2.59-6.1,5.84-.07,3.24,2.59,6.03,5.84,6.1Zm-83.92,11.97c-.04-3.25-2.78-5.95-6.03-5.91-3.26,.04-5.94,2.78-5.91,6.03,.04,3.25,2.78,5.95,6.03,5.91,3.25-.04,5.95-2.79,5.91-6.03Z"/><path class="cls-1" d="M174.23,264.04h13.3c-.46,4.05-.89,7.81-1.33,11.76H18.19V59.89h3.96c89.88,0,179.77,.02,269.65-.07,2.95,0,4.37,.69,5.35,3.65,1.08,3.27,3.11,6.22,4.88,9.62-.43,.5-1.02,1.26-1.69,1.94-10.78,10.8-21.6,21.54-32.31,32.4-1.61,1.64-2.93,1.74-5.17,1.4-3.47-.53-7.1,.08-10.66,.04-1.19-.01-2.69-.15-3.49-.86-2.8-2.48-5.28-5.33-8.05-7.86-1.75-1.6-2.25-3-1.52-5.46,2.75-9.27-2.44-18.88-11.5-21.88-9.1-3.01-19.29,1.51-22.24,10.64-1.19,3.68-.33,8.01-.54,12.04-.07,1.3-.13,3-.92,3.81-8.74,8.94-17.69,17.67-26.39,26.65-1.78,1.84-3.2,1.16-5,.67-7.54-2.05-15.35,.94-19.64,7.45-4.27,6.5-3.89,14.97,.95,21.01,5.01,6.26,13.17,8.47,20.58,5.58,7.24-2.82,11.87-9.93,11.48-17.64-.03-.5,.08-1.09-.14-1.48-2.74-4.73,.27-7.39,3.34-10.36,7.64-7.39,15.11-14.95,22.55-22.53,1.62-1.65,2.95-2.15,5.45-1.66,3.3,.65,6.85-.02,10.29,.08,1.4,.04,2.94,.35,4.13,1.04,1.26,.72,2.16,2.05,3.23,3.1,3.83,3.73,7.53,6.62,5.62,13.71-1.92,7.11,2.59,13.21,9.2,16.87,6.36,3.52,14.16,2.77,19.66-1.92,5.72-4.88,8.09-11.1,5.96-18.46-.74-2.55-.31-4.01,1.52-5.81,11.38-11.24,22.64-22.6,33.48-33.47,6.68,2.79,12.94,5.41,19.6,8.19v107.97c-44.32-21.53-84.03-15.02-119.7,19.49v-25.65h-35.89v71.9Zm-12.54-.22v-95.57h-35.55v95.57h35.55Zm-96.02,0v-59.56H30.12v59.56h35.55Zm12.53-47.68v47.55h35.55v-47.55h-35.55Zm59.53-132.4v-11.59H54.21v11.59h83.51Zm.01,24.02v-11.61H54.2v11.61h83.53Zm-83.56,12.36v11.55h83.59v-11.55H54.17Zm-.08,35.57h83.54v-11.55H54.1v11.55Zm-12.45-71.92v-11.67h-11.51v11.67h11.51Zm.15,12.46h-11.67v11.47h11.67v-11.47Zm-11.66,23.89v11.59h11.52v-11.59h-11.52Zm.03,23.91v11.66h11.45v-11.66h-11.45Z"/><path class="cls-1" d="M233.1,317.16c25.13,33.23,73.2,32.86,97.77,0,6,3.47,12.04,6.95,18.06,10.44,.73,.42,1.42,.92,2.55,1.66-17.46,23.82-40.5,36.74-69.9,36.62-29.09-.13-51.87-13.04-69.22-36.75,7.24-4.18,14-8.09,20.73-11.98Z"/><path class="cls-1" d="M275.8,198.16v23.96c-19.92,2.8-35.63,12.41-45.78,30.01-10.09,17.49-10.54,35.76-2.81,54.54-6.9,3.98-13.67,7.89-20.8,12.01-12.13-27.13-11.74-53.55,3.12-78.93,14.68-25.06,37.19-38.45,66.27-41.6Z"/><path class="cls-1" d="M288.13,222.17v-23.97c28.5,2.94,50.69,15.95,65.47,40.22,15.63,25.66,16.26,52.51,3.96,80.26-7.12-4.11-13.88-8.01-20.82-12.01,7.7-18.71,7.29-36.99-2.79-54.47-10.08-17.48-25.58-27.18-45.82-30.03Z"/><path class="cls-1" d="M281.93,233.97c26.38-.02,48.01,21.53,48.05,47.88,.04,26.56-21.61,48.21-48.15,48.16-26.34-.06-47.88-21.69-47.86-48.07,.02-26.37,21.6-47.95,47.96-47.96Zm0,84.02c19.81,.02,36.02-16.15,36.04-35.96,.02-19.82-16.14-36.03-35.94-36.05-19.8-.03-36.02,16.16-36.05,35.95-.02,19.8,16.16,36.04,35.95,36.06Z"/><path class="cls-1" d="M335.86,77.89c-16.52-.06-29.96-13.65-29.87-30.22,.09-16.51,13.72-29.91,30.3-29.78,16.35,.13,29.69,13.63,29.68,30.03-.01,16.53-13.57,30.03-30.12,29.98Z"/><path class="cls-1" d="M186.18,204.12h11.74c0,10.47,.14,20.79-.12,31.1-.05,1.93-1.7,3.81-2.56,5.74-1.06,2.39-2.38,4.73-3.01,7.23-.84,3.33-2.57,4.52-6.05,3.53v-47.6Z"/><path class="cls-1" d="M227.93,89.76c.09,3.24-2.58,6.04-5.82,6.12-3.24,.09-6.03-2.57-6.12-5.82-.09-3.25,2.56-6.03,5.82-6.12,3.24-.09,6.03,2.57,6.12,5.82Z"/><path class="cls-1" d="M257.84,131.9c-3.25-.07-5.91-2.86-5.84-6.1,.07-3.25,2.85-5.91,6.1-5.84,3.25,.07,5.91,2.86,5.84,6.1-.07,3.25-2.86,5.92-6.1,5.85Z"/><path class="cls-1" d="M173.92,143.87c.04,3.24-2.66,6-5.91,6.03-3.24,.04-5.99-2.66-6.03-5.91-.04-3.25,2.65-6,5.91-6.03,3.25-.04,5.99,2.66,6.03,5.91Z"/><path d="M161.69,263.81h-35.55v-95.57h35.55v95.57Zm-23.49-83.69v71.56h11.56v-71.56h-11.56Z"/><path d="M65.67,263.81H30.12v-59.56h35.55v59.56Zm-11.9-47.57h-11.55v35.53h11.55v-35.53Z"/><path d="M78.2,216.13h35.55v47.55h-35.55v-47.55Zm11.81,35.61h11.68v-23.48h-11.68v23.48Z"/><path d="M137.72,83.73H54.21v-11.59h83.51v11.59Z"/><path d="M137.73,107.75H54.2v-11.61h83.53v11.61Z"/><path d="M54.17,120.11h83.59v11.55H54.17v-11.55Z"/><path d="M54.1,155.68v-11.55h83.54v11.55H54.1Z"/><path d="M41.65,83.75h-11.51v-11.67h11.51v11.67Z"/><path d="M41.79,96.21v11.47h-11.67v-11.47h11.67Z"/><path d="M30.13,120.1h11.52v11.59h-11.52v-11.59Z"/><path d="M30.16,144.01h11.45v11.66h-11.45v-11.66Z"/><path d="M281.93,318c-19.78-.02-35.97-16.26-35.95-36.06,.02-19.79,16.25-35.97,36.05-35.95,19.8,.03,35.96,16.24,35.94,36.05-.02,19.8-16.24,35.98-36.04,35.96Zm.21-60.01c-13.26-.07-24.13,10.69-24.16,23.93-.03,13.09,10.6,23.92,23.64,24.07,13.27,.16,24.24-10.54,24.35-23.74,.11-13.28-10.61-24.18-23.83-24.26Z"/><path class="cls-1" d="M138.2,180.13h11.56v71.56h-11.56v-71.56Z"/><path class="cls-1" d="M53.77,216.24v35.53h-11.55v-35.53h11.55Z"/><path class="cls-1" d="M90,251.75v-23.48h11.68v23.48h-11.68Z"/><path class="cls-1" d="M282.14,257.99c13.22,.07,23.94,10.98,23.83,24.26-.11,13.2-11.08,23.9-24.35,23.74-13.04-.15-23.67-10.98-23.64-24.07,.03-13.23,10.9-24,24.16-23.93Z"/></g></g></svg>