<?xml version="1.0" encoding="utf-8"?>
<!-- Generator: Adobe Illustrator 26.5.0, SVG Export Plug-In . SVG Version: 6.00 Build 0)  -->
<svg version="1.1" id="Layer_1" xmlns="http://www.w3.org/2000/svg" xmlns:xlink="http://www.w3.org/1999/xlink" x="0px" y="0px"
	 viewBox="0 0 696 653" style="enable-background:new 0 0 696 653;" xml:space="preserve">
<style type="text/css">
	.st0{fill:#C7D92B;}
</style>
<circle class="st0" cx="72.5" cy="29.5" r="29.5"/>
<circle class="st0" cx="171.5" cy="29.5" r="29.5"/>
<circle class="st0" cx="270.5" cy="29.5" r="29.5"/>
<circle class="st0" cx="369.5" cy="29.5" r="29.5"/>
<circle class="st0" cx="468.5" cy="29.5" r="29.5"/>
<circle class="st0" cx="567.5" cy="29.5" r="29.5"/>
<circle class="st0" cx="666.5" cy="29.5" r="29.5"/>
<circle class="st0" cx="29.5" cy="128.5" r="29.5"/>
<circle class="st0" cx="128.5" cy="128.5" r="29.5"/>
<circle class="st0" cx="227.5" cy="128.5" r="29.5"/>
<circle class="st0" cx="326.5" cy="128.5" r="29.5"/>
<circle class="st0" cx="425.5" cy="128.5" r="29.5"/>
<circle class="st0" cx="524.5" cy="128.5" r="29.5"/>
<circle class="st0" cx="623.5" cy="128.5" r="29.5"/>
<circle class="st0" cx="72.5" cy="227.5" r="29.5"/>
<circle class="st0" cx="171.5" cy="227.5" r="29.5"/>
<circle class="st0" cx="270.5" cy="227.5" r="29.5"/>
<circle class="st0" cx="369.5" cy="227.5" r="29.5"/>
<circle class="st0" cx="468.5" cy="227.5" r="29.5"/>
<circle class="st0" cx="567.5" cy="227.5" r="29.5"/>
<circle class="st0" cx="666.5" cy="227.5" r="29.5"/>
<circle class="st0" cx="29.5" cy="326.5" r="29.5"/>
<circle class="st0" cx="128.5" cy="326.5" r="29.5"/>
<circle class="st0" cx="227.5" cy="326.5" r="29.5"/>
<circle class="st0" cx="326.5" cy="326.5" r="29.5"/>
<circle class="st0" cx="425.5" cy="326.5" r="29.5"/>
<circle class="st0" cx="524.5" cy="326.5" r="29.5"/>
<circle class="st0" cx="623.5" cy="326.5" r="29.5"/>
<circle class="st0" cx="72.5" cy="425.5" r="29.5"/>
<circle class="st0" cx="171.5" cy="425.5" r="29.5"/>
<circle class="st0" cx="270.5" cy="425.5" r="29.5"/>
<circle class="st0" cx="369.5" cy="425.5" r="29.5"/>
<circle class="st0" cx="468.5" cy="425.5" r="29.5"/>
<circle class="st0" cx="567.5" cy="425.5" r="29.5"/>
<circle class="st0" cx="666.5" cy="425.5" r="29.5"/>
<circle class="st0" cx="29.5" cy="524.5" r="29.5"/>
<circle class="st0" cx="128.5" cy="524.5" r="29.5"/>
<circle class="st0" cx="227.5" cy="524.5" r="29.5"/>
<circle class="st0" cx="326.5" cy="524.5" r="29.5"/>
<circle class="st0" cx="425.5" cy="524.5" r="29.5"/>
<circle class="st0" cx="524.5" cy="524.5" r="29.5"/>
<circle class="st0" cx="623.5" cy="524.5" r="29.5"/>
<circle class="st0" cx="72.5" cy="623.5" r="29.5"/>
<circle class="st0" cx="171.5" cy="623.5" r="29.5"/>
<circle class="st0" cx="270.5" cy="623.5" r="29.5"/>
<circle class="st0" cx="369.5" cy="623.5" r="29.5"/>
<circle class="st0" cx="468.5" cy="623.5" r="29.5"/>
<circle class="st0" cx="567.5" cy="623.5" r="29.5"/>
<circle class="st0" cx="666.5" cy="623.5" r="29.5"/>
</svg>
