<?xml version="1.0" encoding="UTF-8"?><svg id="Layer_2" xmlns="http://www.w3.org/2000/svg" viewBox="0 0 384 384"><defs><style>.cls-1{fill:#fff;}</style></defs><g id="Layer_1-2"><g><path class="cls-1" d="M0,156.75V0c128,0,256,0,384,0V384H0c0-73.5,0-147,0-220.5,2.2,.95,4.39,2.69,6.61,2.73,12.97,.26,25.95,.16,38.92,.11,4.54-.02,7.06-2.23,7.12-5.94,.06-3.86-2.48-6.01-7.3-6.02-12.6-.03-25.2-.14-37.8,.1-2.53,.05-5.03,1.48-7.54,2.28Zm276.16-54.04v156.5c-.81,.11-1.18,.21-1.55,.21-27.74,.01-55.49-.03-83.23,.09-2.62,.01-2.96-1.34-3.53-3.25-4.32-14.3-16.91-23.76-31.49-23.75-14.75,0-27.52,9.56-31.64,24.03-.73,2.57-1.89,2.96-4.16,2.94-10-.09-20-.04-29.99-.04-4.08,0-8.17,0-12.34,0v-34.28c5.98,0,11.7,.09,17.42-.03,3.51-.08,5.74-2.33,5.92-5.52,.18-3.18-1.86-5.65-5.22-6.26-.73-.13-1.49-.15-2.24-.15-24.37,0-48.74-.03-73.1,.01-4.68,0-7.48,2.39-7.47,6.07,0,3.71,2.73,5.9,7.51,5.91,13.5,.03,26.99,0,40.49,0,1.34,0,2.68,0,4.44,0,0,1.76,0,3.09,0,4.43,0,11.25,0,22.5,0,33.74,0,6.12,1.94,8.07,8.05,8.08,15.37,.01,30.74,.09,46.12-.07,2.9-.03,3.98,.83,4.82,3.62,4.19,13.97,17.19,23.49,31.41,23.37,14.5-.13,27.18-9.48,31.3-23.49,.85-2.9,2.12-3.49,4.9-3.48,33.62,.11,67.24,.09,100.85,.1,1.32,0,2.64,0,3.78,0,.53,1.77,.86,2.97,1.25,4.16,4.27,13,15.74,21.75,29.68,22.67,12.89,.85,26.44-6.71,31.07-19.24,2.51-6.79,5.86-8.19,12.29-7.76,7.67,.52,11.74-3.97,11.76-11.7,.03-10.12-.09-20.25,.04-30.37,.1-7.57-1.76-14.54-5.45-21.12-10.32-18.4-20.62-36.81-30.8-55.29-3.56-6.46-8.75-9.54-16.12-9.47-12.75,.13-25.49,.04-38.24,.04-1.3,0-2.61,0-4.07,0,0-14.02,.06-27.39-.02-40.76-.05-7.84-4.29-12.1-12.09-12.1-66.11-.04-132.22-.03-198.34,0-8.05,0-12.13,4.25-12.17,12.33-.03,5.96,0,11.93,0,18.32-1.73,0-3.08,0-4.42,0-6.75,0-13.5-.05-20.25,.02-4.54,.05-7.15,2.25-7.2,5.87-.06,3.62,2.59,6.07,7.03,6.08,23.74,.05,47.48,.06,71.22,0,4.41-.01,7.02-2.52,6.91-6.18-.11-3.5-2.62-5.72-6.91-5.76-10-.08-20-.03-29.99-.03-1.34,0-2.69,0-4.18,0v-18.46h198ZM65.96,186.01c-5.67,0-10.78-.1-15.89,.03-3.59,.1-5.9,2.58-5.9,5.94,0,3.2,2.18,5.57,5.54,5.95,.99,.11,2,.06,3,.06,33.61,0,67.22,0,100.83,0,1.25,0,2.77,.37,3.69-.2,1.78-1.11,4.07-2.53,4.56-4.27,.49-1.73-.46-4.49-1.75-5.91-1.1-1.2-3.59-1.55-5.47-1.56-24.11-.1-48.23-.06-72.34-.06-1.33,0-2.66,0-4.26,0,0-1.81,0-3.16,0-4.51,0-9.75,.05-19.49-.03-29.24-.04-3.97-2.76-6.69-6.18-6.57-3.36,.12-5.64,2.7-5.77,6.57-.04,1.25-.01,2.5-.01,3.75,0,9.85,0,19.69,0,30.01Z"/><path d="M0,156.75c2.51-.8,5.02-2.23,7.54-2.28,12.6-.24,25.2-.12,37.8-.1,4.82,.01,7.36,2.16,7.3,6.02-.06,3.71-2.57,5.92-7.12,5.94-12.98,.06-25.95,.15-38.92-.11-2.22-.04-4.4-1.78-6.61-2.73,0-2.25,0-4.5,0-6.75Z"/><path d="M276.16,102.71H78.16v18.46c1.49,0,2.84,0,4.18,0,10,0,20-.04,29.99,.03,4.29,.03,6.81,2.25,6.91,5.76,.11,3.66-2.5,6.17-6.91,6.18-23.74,.06-47.48,.06-71.22,0-4.44,0-7.08-2.45-7.03-6.08,.06-3.62,2.67-5.82,7.2-5.87,6.75-.07,13.5-.02,20.25-.02,1.35,0,2.69,0,4.42,0,0-6.39-.02-12.35,0-18.32,.04-8.09,4.13-12.33,12.17-12.33,66.11-.03,132.22-.03,198.34,0,7.81,0,12.04,4.26,12.09,12.1,.09,13.37,.02,26.74,.02,40.76,1.46,0,2.77,0,4.07,0,12.75,0,25.5,.09,38.24-.04,7.37-.07,12.56,3,16.12,9.47,10.18,18.48,20.48,36.89,30.8,55.29,3.69,6.58,5.55,13.55,5.45,21.12-.13,10.12,0,20.25-.04,30.37-.02,7.74-4.09,12.22-11.76,11.7-6.43-.43-9.78,.97-12.29,7.76-4.63,12.53-18.18,20.09-31.07,19.24-13.95-.92-25.42-9.67-29.68-22.67-.39-1.18-.72-2.39-1.25-4.16-1.14,0-2.46,0-3.78,0-33.62-.01-67.24,.01-100.85-.1-2.78,0-4.05,.58-4.9,3.48-4.13,14.01-16.8,23.36-31.3,23.49-14.22,.13-27.22-9.4-31.41-23.37-.84-2.79-1.91-3.65-4.82-3.62-15.37,.16-30.74,.09-46.12,.07-6.11,0-8.04-1.95-8.05-8.08-.01-11.25,0-22.5,0-33.74,0-1.34,0-2.67,0-4.43-1.75,0-3.1,0-4.44,0-13.5,0-26.99,.02-40.49,0-4.78,0-7.5-2.2-7.51-5.91,0-3.68,2.79-6.06,7.47-6.07,24.37-.04,48.74-.02,73.1-.01,.75,0,1.51,.02,2.24,.15,3.37,.61,5.4,3.08,5.22,6.26-.18,3.19-2.42,5.44-5.92,5.52-5.72,.13-11.45,.03-17.42,.03v34.28c4.17,0,8.25,0,12.34,0,10,0,20-.05,29.99,.04,2.27,.02,3.43-.38,4.16-2.94,4.12-14.47,16.89-24.02,31.64-24.03,14.58,0,27.18,9.45,31.49,23.75,.57,1.91,.91,3.26,3.53,3.25,27.74-.12,55.49-.08,83.23-.09,.37,0,.74-.1,1.55-.21V102.71Zm95.11,156.54c0-10.19-.07-20.16,.03-30.13,.06-5.4-1.25-10.35-3.87-15.03-10.3-18.42-20.59-36.84-30.8-55.31-1.39-2.51-3.13-3.48-5.99-3.45-12.87,.12-25.75,.05-38.62,.06-.97,0-1.94,.11-2.98,.18v103.76q7.5,.4,10.16-6.23c4.98-12.4,17.02-20.55,30.41-20.59,13.35-.04,25.44,8.08,30.48,20.47q2.76,6.79,11.18,6.27Zm-235.61,6.02c.04,11.88,9.05,21.05,20.72,21.08,11.49,.03,20.7-9.42,20.66-21.19-.04-11.45-9.3-20.65-20.79-20.64-11.52,0-20.63,9.19-20.59,20.76Zm214.68,.03c-.03-11.6-9.07-20.73-20.59-20.79-11.65-.06-20.81,9.2-20.78,20.98,.03,11.7,9.39,21,20.98,20.85,11.42-.15,20.42-9.43,20.39-21.04Z"/><path d="M65.96,186.01c0-10.32,0-20.16,0-30.01,0-1.25-.03-2.5,.01-3.75,.14-3.87,2.42-6.45,5.77-6.57,3.43-.12,6.15,2.6,6.18,6.57,.09,9.74,.03,19.49,.03,29.24,0,1.35,0,2.7,0,4.51,1.6,0,2.93,0,4.26,0,24.11,0,48.23-.03,72.34,.06,1.88,0,4.37,.36,5.47,1.56,1.29,1.41,2.24,4.17,1.75,5.91-.49,1.74-2.78,3.16-4.56,4.27-.91,.57-2.44,.2-3.69,.2-33.61,0-67.22,0-100.83,0-1,0-2.01,.05-3-.06-3.36-.39-5.54-2.76-5.54-5.95,0-3.35,2.31-5.84,5.9-5.94,5.11-.14,10.22-.03,15.89-.03Z"/><path class="cls-1" d="M371.26,259.25q-8.42,.53-11.18-6.27c-5.04-12.39-17.13-20.51-30.48-20.47-13.38,.04-25.42,8.19-30.41,20.59q-2.66,6.63-10.16,6.23v-103.76c1.05-.07,2.01-.18,2.98-.18,12.87-.01,25.75,.06,38.62-.06,2.85-.03,4.6,.94,5.99,3.45,10.2,18.47,20.5,36.89,30.8,55.31,2.62,4.69,3.93,9.64,3.87,15.03-.1,9.97-.03,19.94-.03,30.13Z"/><path class="cls-1" d="M135.65,265.27c-.04-11.57,9.06-20.75,20.59-20.76,11.49,0,20.75,9.19,20.79,20.64,.04,11.78-9.17,21.23-20.66,21.19-11.66-.03-20.67-9.2-20.72-21.08Z"/><path class="cls-1" d="M350.34,265.3c.03,11.61-8.97,20.89-20.39,21.04-11.59,.15-20.94-9.15-20.98-20.85-.03-11.79,9.13-21.04,20.78-20.98,11.51,.06,20.56,9.2,20.59,20.79Z"/></g></g></svg>