<?xml version="1.0" encoding="UTF-8"?><svg id="Layer_2" xmlns="http://www.w3.org/2000/svg" viewBox="0 0 318.18 302.66"><defs><style>.cls-1{fill:#fff;}</style></defs><g id="Layer_1-2"><g><path class="cls-1" d="M156.83,243.74c32.87,0,65.74,.01,98.61-.02,3.75,0,7.52-.07,11.26-.39,10.87-.92,20.96-4.24,30.02-10.4,10.94-7.44,16.55-17.92,17.34-31.04,.6-9.95-1.11-19.58-4.15-29.02-2.85-8.86-6.87-17.2-10.94-25.54-6.04-12.37-9.55-25.41-10-39.19-.17-5.35,0-10.71,0-16.07,0-24.87,.01-49.74-.01-74.61,0-2.31-.02-4.66-.4-6.93-.86-5.17-4.8-8.58-9.67-8.68-5.27-.1-9.34,3.1-10.49,8.34-.25,1.16-.38,2.37-.38,3.56-.06,29.35-.09,58.7-.14,88.05-.01,7.04,.15,14.06,1.27,21.04,2,12.43,6.08,24.14,11.96,35.25,3.18,6.01,6.06,12.16,8.22,18.62,2.44,7.31,4.19,14.77,4.05,22.54-.17,9.45-5.07,16.33-13.96,19.48-6.58,2.33-13.39,3.84-20.39,4-10.47,.23-20.95,.3-31.42,.31-34.95,0-69.9-.03-104.84-.08-17.75-.02-35.51-.02-53.26-.21-6.63-.07-13.25-.56-19.86-1.05-6.73-.49-13-2.52-18.68-6.23-.94-.61-1.9-1.19-2.87-1.75-5.11-2.96-6.91-7.77-7.2-13.28-.16-3.06,1.42-5.25,4.33-6.19,1.72-.56,3.58-.81,5.4-.92,10.69-.65,21.4-1.11,32.08-1.85,6.86-.47,13.67-1.37,20.36-3.09,11.4-2.94,21.98-7.81,32.07-13.76,20.04-11.83,39.61-24.43,58.54-37.97,11.33-8.11,19.24-18.81,23.54-32.14,2.53-7.85,3.37-15.94,3.42-24.12,.1-19.19,.11-38.38,.15-57.58,0-4.24,.07-8.48-.07-12.71-.17-5.18-3.94-9.42-8.67-10.02-5.39-.68-10.24,2.35-11.67,7.44-.42,1.52-.57,3.15-.57,4.74-.05,18.15-.05,36.31-.06,54.46,0,5.2,.11,10.4-.02,15.59-.39,16.23-7,29.35-20.08,39.03-19.38,14.34-39.71,27.15-61.11,38.29-12.6,6.55-25.87,10.43-39.96,11.83-8.69,.86-17.39,1.02-26.1,1.22-3.35,.08-6.74,.12-10.03,.66-9.4,1.55-16.44,6.44-20.15,15.45-2.74,6.66-2.75,13.57-1.31,20.51,1.89,9.06,7.06,15.97,14.41,21.36,10.83,7.95,23.06,12,36.39,12.61,8.62,.39,17.27,.41,25.9,.43,26.39,.05,52.78,.02,79.18,.02Zm103.18,11.16c-2.51-.53-23.96-.47-26.13,.1v25.05h-4.26c-.07-1.06-.18-1.99-.18-2.92-.02-6.56,0-13.11-.02-19.67,0-.93-.13-1.85-.2-2.72-4.31-.46-24.14-.28-26.11,.29v16.56h-4.46c-.04-5.71-.08-11.26-.12-16.74-3.13-.5-21.97-.39-23.9,.16,0,4.08,.01,8.22,0,12.37-.02,4.21,.07,8.43-.06,12.64h-4.47c0-4.33,.03-8.48,0-12.62-.04-4.2,.16-8.41-.13-12.68h-26c-.06,1.09-.15,2.03-.15,2.97-.02,3.76,0,7.52-.02,11.27,0,.85-.15,1.69-.23,2.61h-4.12c-.29-5.74,.14-11.3-.25-16.87h-20.68c0,1.01,0,1.87,0,2.73,0,6.64,0,13.27,0,19.91,0,.91-.14,1.83-.21,2.72h-4.35v-25.34h-26.08c-.07,.99-.18,1.92-.18,2.86-.02,3.92,.01,7.84-.02,11.75-.02,2.27-.28,2.52-2.46,2.45-.6-.02-1.2-.21-1.86-.33-.38-5.65,.16-11.15-.33-16.74h-23.8c-.04,.98-.11,1.83-.12,2.69,0,6.72,0,13.43-.01,20.15,0,.84-.08,1.69-.12,2.48h-4.42v-8.55c0-2.8,.02-5.6,0-8.4-.02-2.76,.1-5.54-.08-8.36H28.4c-.22,5.69,.09,11.26-.18,16.78-1.64,.35-2.94,.52-4.46-.19v-16.74c-5.79,.02-11.32-.11-16.91,.09v48.02H318.01c.07-.48,.16-.79,.16-1.1,0-15.19,0-30.39,0-45.58,0-.31-.08-.63-.14-.94-.01-.07-.09-.12-.15-.18-.05-.06-.11-.12-.17-.18h-22.2c-.07,1.06-.18,1.99-.18,2.92-.02,6.56,0,13.11-.02,19.67,0,.92-.11,1.85-.17,2.73h-4.22c-.19-8.53,.08-16.89-.16-25.3h-26.15c-.04,5.69-.08,11.24-.12,16.83h-4.48v-16.63Zm-32.82-83.6c2.98-.42,6.24-.77,9.45-1.36,17.53-3.25,27.98-20.14,24.46-37.38-.96-4.71-4.94-8.13-9.57-8.31-5.95-.23-10.64,4.09-10.87,10.05-.08,2.15,.08,4.32-.06,6.47-.28,4.31-2.67,7.12-6.85,8.14-1.55,.38-3.12,.67-4.7,.88-2.77,.36-5.58,.47-8.32,.98-3.94,.73-7.11,2.74-8.2,6.81-1.65,6.17,1.26,12.14,8.4,13.29,1.96,.31,3.97,.28,6.26,.43Z"/><path d="M156.83,243.74c-26.39,0-52.78,.03-79.18-.02-8.63-.02-17.28-.04-25.9-.43-13.33-.6-25.56-4.66-36.39-12.61-7.35-5.4-12.52-12.3-14.41-21.36-1.45-6.94-1.43-13.86,1.31-20.51,3.71-9,10.74-13.89,20.15-15.45,3.29-.54,6.68-.58,10.03-.66,8.71-.2,17.42-.36,26.1-1.22,14.09-1.4,27.36-5.28,39.96-11.83,21.4-11.14,41.73-23.95,61.11-38.29,13.08-9.68,19.69-22.8,20.08-39.03,.13-5.19,.02-10.4,.02-15.59,.01-18.15,.01-36.31,.06-54.46,0-1.58,.15-3.22,.57-4.74,1.43-5.09,6.28-8.12,11.67-7.44,4.73,.6,8.5,4.84,8.67,10.02,.14,4.23,.08,8.48,.07,12.71-.04,19.19-.06,38.38-.15,57.58-.04,8.18-.89,16.27-3.42,24.12-4.29,13.32-12.2,24.02-23.54,32.14-18.93,13.55-38.49,26.14-58.54,37.97-10.08,5.95-20.67,10.82-32.07,13.76-6.68,1.72-13.5,2.62-20.36,3.09-10.69,.74-21.39,1.2-32.08,1.85-1.81,.11-3.68,.36-5.4,.92-2.92,.95-4.5,3.13-4.33,6.19,.3,5.51,2.09,10.33,7.2,13.28,.97,.56,1.93,1.14,2.87,1.75,5.69,3.7,11.95,5.74,18.68,6.23,6.61,.48,13.24,.98,19.86,1.05,17.75,.19,35.51,.18,53.26,.21,34.95,.05,69.9,.09,104.84,.08,10.47,0,20.95-.08,31.42-.31,7-.15,13.81-1.67,20.39-4,8.9-3.15,13.79-10.03,13.96-19.48,.14-7.77-1.61-15.23-4.05-22.54-2.16-6.46-5.03-12.61-8.22-18.62-5.88-11.11-9.97-22.82-11.96-35.25-1.12-6.98-1.28-14-1.27-21.04,.05-29.35,.08-58.7,.14-88.05,0-1.19,.13-2.4,.38-3.56,1.15-5.24,5.22-8.44,10.49-8.34,4.87,.09,8.8,3.5,9.67,8.68,.38,2.27,.4,4.62,.4,6.93,.03,24.87,.02,49.74,.01,74.61,0,5.36-.17,10.72,0,16.07,.45,13.79,3.96,26.83,10,39.19,4.07,8.33,8.09,16.68,10.94,25.54,3.04,9.44,4.75,19.07,4.15,29.02-.8,13.12-6.41,23.6-17.34,31.04-9.06,6.16-19.15,9.48-30.02,10.4-3.74,.32-7.51,.38-11.26,.39-32.87,.03-65.74,.02-98.61,.02Z"/><path d="M260.02,254.9v16.63h4.48c.04-5.6,.08-11.14,.12-16.83h26.15c.24,8.42-.04,16.78,.16,25.3h4.22c.06-.88,.17-1.81,.17-2.73,.02-6.56,0-13.11,.02-19.67,0-.93,.11-1.86,.18-2.92h22.2c.06,.06,.12,.12,.17,.18,.05,.06,.14,.11,.15,.18,.06,.31,.14,.63,.14,.94,0,15.19,0,30.39,0,45.58,0,.31-.09,.62-.16,1.1H6.85v-48.02c5.59-.2,11.12-.07,16.91-.09v16.74c1.51,.71,2.82,.54,4.46,.19,.27-5.53-.04-11.09,.18-16.78h26.04c.18,2.83,.06,5.6,.08,8.36,.02,2.8,0,5.6,0,8.4v8.55h4.42c.04-.79,.12-1.64,.12-2.48,.01-6.72,0-13.43,.01-20.15,0-.86,.07-1.71,.12-2.69h23.8c.49,5.6-.05,11.09,.33,16.74,.67,.12,1.26,.31,1.86,.33,2.18,.07,2.45-.17,2.46-2.45,.03-3.92,0-7.84,.02-11.75,0-.93,.12-1.86,.18-2.86h26.08v25.34h4.35c.07-.89,.21-1.81,.21-2.72,.02-6.64,0-13.27,0-19.91,0-.86,0-1.72,0-2.73h20.68c.39,5.57-.04,11.13,.25,16.87h4.12c.09-.92,.23-1.76,.23-2.61,.03-3.76,0-7.52,.02-11.27,0-.94,.1-1.88,.15-2.97h26c.29,4.27,.1,8.48,.13,12.68,.04,4.15,0,8.29,0,12.62h4.47c.13-4.21,.04-8.43,.06-12.64,.02-4.15,0-8.29,0-12.37,1.93-.55,20.77-.67,23.9-.16,.04,5.48,.08,11.03,.12,16.74h4.46v-16.56c1.98-.56,21.81-.74,26.11-.29,.07,.87,.19,1.8,.2,2.72,.02,6.56,0,13.11,.02,19.67,0,.93,.11,1.87,.18,2.92h4.26v-25.05c2.16-.57,23.62-.62,26.13-.1Z"/><path d="M227.2,171.29c-2.29-.15-4.3-.11-6.26-.43-7.14-1.15-10.05-7.12-8.4-13.29,1.09-4.06,4.26-6.08,8.2-6.81,2.74-.51,5.55-.61,8.32-.98,1.58-.21,3.16-.5,4.7-.88,4.18-1.02,6.57-3.82,6.85-8.14,.14-2.15-.02-4.31,.06-6.47,.22-5.96,4.92-10.28,10.87-10.05,4.63,.18,8.61,3.6,9.57,8.31,3.52,17.23-6.93,34.13-24.46,37.38-3.21,.59-6.47,.94-9.45,1.36Z"/></g></g></svg>