<?xml version="1.0" encoding="UTF-8"?><svg id="Layer_2" xmlns="http://www.w3.org/2000/svg" viewBox="0 0 384 384"><defs><style>.cls-1{fill:#fff;}</style></defs><g id="Layer_1-2"><g><path class="cls-1" d="M250.53,0c44.48,0,88.95,0,133.47,0,0,128,0,256,0,384h-74.96c.18-.16,.33-.42,.54-.48,18.28-5.18,26.46-15.92,26.46-34.79,0-86.07-.02-172.14,.06-258.22,0-4.06-1.24-7.12-4.1-9.97-20.82-20.69-41.52-41.51-62.34-62.22C263.4,12.1,256.91,6.1,250.53,0Z"/><path d="M250.53,0c6.38,6.1,12.87,12.1,19.13,18.33,20.81,20.71,41.51,41.53,62.34,62.22,2.86,2.84,4.11,5.91,4.1,9.97-.08,86.07-.06,172.14-.06,258.22,0,18.87-8.18,29.62-26.46,34.79-.21,.06-.36,.31-.54,.48H75.01c-.18-.16-.33-.42-.54-.48-18.25-5.14-26.46-15.94-26.46-34.81,0-73.48,0-146.96,0-220.45,0-31.87-.08-63.73,.04-95.6,.05-13.96,6.68-24,19.29-29.97,2.44-1.15,5.11-1.8,7.67-2.69,58.51,0,117.01,0,175.52,0Zm-10.5,16.09c-1.34-.07-2.07-.15-2.81-.15-51.99,0-103.98-.03-155.97,.02-10.94,.01-17.29,6.77-17.29,18.18,0,105.22,0,210.44,0,315.66,0,11.86,6.44,18.25,18.36,18.26,73.11,0,146.22,0,219.34,0,12.12,0,18.44-6.36,18.44-18.56,0-83.1,0-166.2,0-249.31v-4.19c-1.92,0-3.28,0-4.65,0-14.62,0-29.25,.12-43.87-.05-15.48-.18-28.4-11.14-30.89-26.43-.85-5.25-.61-10.7-.64-16.06-.08-12.35-.03-24.7-.03-37.37Zm15.94,12.71c0,.56,0,1.52,0,2.47,0,10.37-.04,20.75,.01,31.12,.05,11.1,6.63,17.61,17.84,17.65,10.25,.04,20.5,.01,30.75,0,1.05,0,2.1-.14,2.49-.17-16.94-16.94-34.01-34-51.09-51.08Z"/><path class="cls-1" d="M75.01,0c-2.56,.88-5.24,1.53-7.67,2.69-12.61,5.98-19.23,16.01-19.29,29.97-.12,31.87-.04,63.73-.04,95.6,0,73.48,0,146.96,0,220.45,0,18.87,8.21,29.67,26.46,34.81,.21,.06,.36,.31,.54,.48H0C0,256,0,128,0,0c25,0,50.01,0,75.01,0Z"/><path class="cls-1" d="M240.03,16.09c0,12.67-.05,25.02,.03,37.37,.03,5.36-.21,10.81,.64,16.06,2.49,15.29,15.41,26.25,30.89,26.43,14.62,.17,29.24,.05,43.87,.05,1.37,0,2.73,0,4.65,0v4.19c0,83.1,0,166.2,0,249.31,0,12.2-6.32,18.56-18.44,18.56-73.11,0-146.22,0-219.34,0-11.92,0-18.36-6.4-18.36-18.26,0-105.22,0-210.44,0-315.66,0-11.4,6.35-18.17,17.29-18.18,51.99-.05,103.98-.02,155.97-.02,.74,0,1.47,.07,2.81,.15Zm-48,159.97c-28.1,0-56.21,0-84.31,0-1.37,0-2.75-.04-4.12,.06-4.36,.33-7.51,3.6-7.56,7.77-.05,4.14,3.08,7.59,7.36,8.04,1.11,.12,2.25,.06,3.37,.06,56.83,0,113.66,0,170.49,0,1.12,0,2.26,.06,3.37-.06,4.28-.44,7.42-3.88,7.38-8.02-.04-4.17-3.2-7.46-7.55-7.79-1.37-.1-2.75-.07-4.12-.07-28.1,0-56.21,0-84.31,0Zm.19,48c-28.48,0-56.96,0-85.43,0-7.04,0-10.81,2.83-10.75,8.03,.06,5.15,3.86,7.91,10.92,7.91,56.71,0,113.41,0,170.12,0,1.37,0,2.77,.08,4.11-.12,4.04-.61,6.95-4.16,6.82-8.14-.14-4.04-3.19-7.22-7.36-7.59-1.36-.12-2.75-.08-4.12-.08-28.1,0-56.21,0-84.31,0Zm-.32,63.94c28.35,0,56.71,0,85.06,0,7.28,0,11.15-2.86,11.05-8.15-.1-5.17-3.78-7.78-10.99-7.78-56.71,0-113.41,0-170.12,0-1.25,0-2.5-.03-3.74,.1-3.82,.4-6.71,3.32-7.09,7.06-.36,3.57,1.72,7.04,5.25,8.16,1.62,.52,3.43,.59,5.15,.59,28.48,.03,56.96,.02,85.43,.02ZM111.71,143.98c.29,.91,.46,1.5,.66,2.09,1.36,3.9,4.46,6.15,8.11,5.9,3.75-.26,6.72-2.75,7.29-6.84,.31-2.26,1.5-3.08,3.24-4,9.8-5.14,14.7-15.52,12.42-26.06-2.32-10.75-11.18-18.35-22.19-19.04-5.86-.37-9.31-3.42-9.22-8.17,.09-4.75,3.71-7.74,9.5-7.8,4.87-.04,9.76,.15,14.62-.11,4.72-.25,7.84-3.64,7.85-7.94,.01-4.3-3.13-7.58-7.81-8-1.86-.17-3.79,.17-5.6-.16-1.06-.2-2.42-1.06-2.85-1.99-1.94-4.24-4.5-6.09-8.6-5.7-3.7,.35-6,2.82-7.13,7.1-.32,1.21-1.32,2.61-2.4,3.19-10.15,5.48-15.28,15.59-13.08,26.15,2.31,11.05,10.82,18.41,22.31,19.29,5.8,.44,9.3,3.61,9.18,8.3-.13,4.76-3.77,7.8-9.54,7.88-4.87,.06-9.75-.08-14.62,.09-4.59,.16-7.83,3.59-7.81,7.91,.02,4.28,3.34,7.68,7.88,7.91,2.49,.13,4.99,.02,7.8,.02Zm40.07,192.02c1.25,0,2.5,0,3.75,0,14.49,0,28.97,.03,43.46-.02,5.91-.02,9.47-3.74,8.87-9.05-.5-4.46-3.76-6.86-9.52-6.86-30.85-.02-61.69,0-92.54,0-1,0-2.01,0-2.99,.13-5.82,.83-8.7,7.5-5.31,12.32,1.9,2.71,4.63,3.51,7.83,3.5,15.49-.05,30.97-.02,46.46-.02Zm80.4-192c9.99,0,19.98,0,29.97,0,5.99,0,11.99,.11,17.98-.06,4.54-.13,7.85-3.62,7.88-7.89,.03-4.3-3.24-7.65-7.79-7.94-1.24-.08-2.5-.05-3.75-.05-27.6,0-55.2,0-82.8,0-3.5,0-7-.05-10.49,.11-3.19,.14-5.81,1.93-6.39,4.87-.48,2.44-.27,5.86,1.15,7.59,1.54,1.88,4.84,3.17,7.4,3.21,15.6,.28,31.22,.14,46.83,.14Z"/><path class="cls-1" d="M255.97,28.8c17.08,17.08,34.15,34.14,51.09,51.08-.39,.03-1.44,.17-2.49,.17-10.25,.02-20.5,.04-30.75,0-11.2-.04-17.79-6.55-17.84-17.65-.05-10.37-.01-20.75-.01-31.12,0-.96,0-1.91,0-2.47Z"/><path d="M192.03,176.06c28.1,0,56.21,0,84.31,0,1.37,0,2.75-.04,4.12,.07,4.35,.33,7.51,3.62,7.55,7.79,.04,4.14-3.1,7.58-7.38,8.02-1.11,.11-2.25,.06-3.37,.06-56.83,0-113.66,0-170.49,0-1.12,0-2.26,.06-3.37-.06-4.28-.44-7.41-3.9-7.36-8.04,.05-4.17,3.2-7.44,7.56-7.77,1.37-.1,2.75-.06,4.12-.06,28.1,0,56.21,0,84.31,0Z"/><path d="M192.22,224.06c28.1,0,56.21,0,84.31,0,1.37,0,2.75-.04,4.12,.08,4.17,.36,7.22,3.55,7.36,7.59,.14,3.98-2.77,7.53-6.82,8.14-1.35,.2-2.74,.12-4.11,.12-56.71,0-113.41,0-170.12,0-7.06,0-10.86-2.75-10.92-7.91-.06-5.2,3.71-8.02,10.75-8.03,28.48,0,56.96,0,85.43,0Z"/><path d="M191.9,288c-28.48,0-56.96,0-85.43-.02-1.72,0-3.53-.07-5.15-.59-3.52-1.12-5.61-4.59-5.25-8.16,.38-3.74,3.27-6.66,7.09-7.06,1.24-.13,2.49-.1,3.74-.1,56.71,0,113.41,0,170.12,0,7.21,0,10.89,2.62,10.99,7.78,.1,5.29-3.77,8.15-11.05,8.15-28.35,0-56.71,0-85.06,0Z"/><path d="M111.71,143.98c-2.81,0-5.31,.11-7.8-.02-4.55-.24-7.86-3.64-7.88-7.91-.02-4.32,3.22-7.75,7.81-7.91,4.87-.17,9.75-.02,14.62-.09,5.76-.07,9.41-3.12,9.54-7.88,.13-4.69-3.37-7.85-9.18-8.3-11.49-.88-20-8.24-22.31-19.29-2.21-10.56,2.92-20.68,13.08-26.15,1.08-.58,2.08-1.98,2.4-3.19,1.12-4.27,3.43-6.75,7.13-7.1,4.1-.38,6.66,1.46,8.6,5.7,.43,.93,1.79,1.79,2.85,1.99,1.81,.34,3.74,0,5.6,.16,4.68,.42,7.83,3.71,7.81,8-.01,4.31-3.13,7.69-7.85,7.94-4.86,.26-9.74,.07-14.62,.11-5.79,.05-9.41,3.04-9.5,7.8-.09,4.75,3.36,7.8,9.22,8.17,11.01,.69,19.87,8.29,22.19,19.04,2.27,10.54-2.62,20.92-12.42,26.06-1.74,.91-2.93,1.74-3.24,4-.57,4.09-3.53,6.58-7.29,6.84-3.65,.26-6.76-2-8.11-5.9-.2-.58-.37-1.17-.66-2.09Z"/><path d="M151.77,336c-15.49,0-30.97-.03-46.46,.02-3.2,.01-5.93-.79-7.83-3.5-3.38-4.82-.51-11.48,5.31-12.32,.98-.14,1.99-.13,2.99-.13,30.85,0,61.69-.01,92.54,0,5.76,0,9.02,2.4,9.52,6.86,.6,5.32-2.96,9.03-8.87,9.05-14.49,.05-28.97,.02-43.46,.02-1.25,0-2.5,0-3.75,0Z"/><path d="M232.17,144c-15.61,0-31.22,.14-46.83-.14-2.56-.05-5.85-1.34-7.4-3.21-1.43-1.73-1.63-5.15-1.15-7.59,.58-2.95,3.2-4.73,6.39-4.87,3.49-.16,6.99-.11,10.49-.11,27.6,0,55.2,0,82.8,0,1.25,0,2.5-.03,3.75,.05,4.56,.29,7.83,3.64,7.79,7.94-.03,4.28-3.34,7.77-7.88,7.89-5.99,.17-11.99,.06-17.98,.06-9.99,0-19.98,0-29.97,0Z"/></g></g></svg>